<?xml version="1.0" encoding="UTF-8" standalone="no"?>
<svg width="379px" height="320px" viewBox="0 0 379 320" version="1.1" xmlns="http://www.w3.org/2000/svg" xmlns:xlink="http://www.w3.org/1999/xlink">
    <!-- Generator: sketchtool 41 (35326) - http://www.bohemiancoding.com/sketch -->
    <title>7108F437-BD2E-4943-921B-C9CA5FD8F61F</title>
    <desc>Created with sketchtool.</desc>
    <defs>
        <polygon id="path-1" points="252.079921 138.810718 252.079921 0.096182074 0.0046213882 0.096182074 0.0046213882 138.810718 252.079921 138.810718"></polygon>
        <polygon id="path-3" points="189.058576 0.0955578617 0 0.0955578617 0 208.164241 378.117151 208.164241 378.117151 0.0955578617"></polygon>
        <polygon id="path-5" points="126.03786 181.021564 0 181.021564 0 90.8575321 0 0.693499855 126.03786 0.693499855"></polygon>
        <polygon id="path-7" points="0 181.021564 126.03786 181.021564 126.03786 0.693499855 0 0.693499855"></polygon>
    </defs>
    <g id="Page-1" stroke="none" stroke-width="1" fill="none" fill-rule="evenodd">
        <g id="HOME_full_page" transform="translate(-140.000000, -1037.000000)">
            <g id="Page-1" transform="translate(140.000000, 1037.000000)">
                <g id="Group-3" transform="translate(126.037860, 0.690795)">
                    <mask id="mask-2" fill="white">
                        <use xlink:href="#path-1"></use>
                    </mask>
                    <g id="Clip-2"></g>
                    <path d="M70.0249545,84.0423316 L70.0249545,47.7527098 C87.014858,71.9450974 126.042481,69.4482483 126.042481,69.4482483 C126.042481,69.4482483 165.068004,71.9450974 182.057908,47.7527098 L182.057908,84.0423316 C182.057908,84.0423316 168.519341,102.712521 126.042481,102.712521 C83.5656219,102.712521 70.0249545,84.0423316 70.0249545,84.0423316 L70.0249545,84.0423316 Z M252.080341,69.4524097 L126.042481,0.096182074 L0.0046213882,69.4524097 L126.042481,138.810718 L252.080341,69.4524097 Z" id="Fill-1" fill="#BCBEC0" mask="url(#mask-2)"></path>
                </g>
                <path d="M70.0209633,154.086649 L70.0209633,117.797027 C87.0108668,141.989415 126.03849,139.492566 126.03849,139.492566 C126.03849,139.492566 165.064013,141.989415 182.053916,117.797027 L182.053916,154.086649 C182.053916,154.086649 168.51535,172.756839 126.03849,172.756839 C83.5616307,172.756839 70.0209633,154.086649 70.0209633,154.086649 L70.0209633,154.086649 Z M252.07635,139.496727 L126.03849,70.1404997 L0.000630189301,139.496727 L126.03849,208.855036 L252.07635,139.496727 Z" id="Fill-4" fill="#BCBEC0"></path>
                <g id="Group-8" transform="translate(0.000000, 0.690795)">
                    <mask id="mask-4" fill="white">
                        <use xlink:href="#path-3"></use>
                    </mask>
                    <g id="Clip-7"></g>
                    <path d="M182.054757,153.395854 C182.054757,153.395854 168.51619,172.066044 126.03723,172.066044 C83.5603703,172.066044 70.0218036,153.395854 70.0218036,153.395854 L70.0218036,117.106232 C87.0117071,141.29862 126.03723,138.801771 126.03723,138.801771 C126.03723,138.801771 165.062753,141.29862 182.054757,117.106232 L182.054757,153.395854 Z M196.061764,47.7520855 C213.053768,71.9444732 252.079291,69.4476241 252.079291,69.4476241 C252.079291,69.4476241 291.104814,71.9444732 308.096818,47.7520855 L308.096818,84.0417074 C308.096818,84.0417074 294.558251,102.711897 252.079291,102.711897 C209.602432,102.711897 196.061764,84.0417074 196.061764,84.0417074 L196.061764,47.7520855 Z M378.117151,69.4538662 L252.079291,0.0955578617 L126.043532,69.4517855 L126.03723,69.4497048 L-0.000630189301,138.805932 L126.03723,208.164241 L252.07509,138.808013 L252.079291,138.810094 L378.117151,69.4538662 Z" id="Fill-6" fill="#FFFFFF" mask="url(#mask-4)"></path>
                </g>
                <g id="Group-11" transform="translate(0.000000, 138.803852)">
                    <mask id="mask-6" fill="white">
                        <use xlink:href="#path-5"></use>
                    </mask>
                    <g id="Clip-10"></g>
                    <polygon id="Fill-9" fill-opacity="0.6" fill="#000000" mask="url(#mask-6)" points="0 0.693499855 0 111.66388 126.03786 181.022188 126.03786 70.0497275"></polygon>
                </g>
                <g id="Group-14" transform="translate(126.037860, 138.803852)">
                    <mask id="mask-8" fill="white">
                        <use xlink:href="#path-7"></use>
                    </mask>
                    <g id="Clip-13"></g>
                    <polygon id="Fill-12" fill-opacity="0.3" fill="#000000" mask="url(#mask-8)" points="126.03786 0.693499855 0 70.0497275 0 181.022188 126.03786 111.66388"></polygon>
                </g>
                <path d="M70.0209633,117.797235 L70.0209633,154.086857 C70.0209633,154.086857 83.5616307,172.757047 126.03849,172.757047 L126.03849,139.492774 C126.03849,139.492774 87.0108668,141.989623 70.0209633,117.797235" id="Fill-15" fill-opacity="0.6" fill="#000000"></path>
                <path d="M182.054757,154.086649 L182.054757,117.797027 C165.062753,141.989415 126.03723,139.492566 126.03723,139.492566 L126.03723,172.756839 C168.51619,172.756839 182.054757,154.086649 182.054757,154.086649" id="Fill-17" fill-opacity="0.3" fill="#000000"></path>
                <path d="M196.062814,48.4435047 L196.062814,84.7331266 C196.062814,84.7331266 209.603482,103.403316 252.080341,103.403316 L252.080341,70.1390432 C252.080341,70.1390432 213.052718,72.6358924 196.062814,48.4435047" id="Fill-19" fill-opacity="0.3" fill="#000000"></path>
                <path d="M308.096818,84.7331266 L308.096818,48.4435047 C291.104814,72.6358924 252.079291,70.1390432 252.079291,70.1390432 L252.079291,103.403316 C294.558251,103.403316 308.096818,84.7331266 308.096818,84.7331266" id="Fill-21" fill-opacity="0.1" fill="#000000"></path>
                <polygon id="Fill-23" fill-opacity="0.1" fill="#000000" points="252.079921 139.500889 252.07572 139.498808 252.07572 250.469188 252.079921 250.471269 378.117781 181.115041 378.117781 70.1446611"></polygon>
            </g>
        </g>
    </g>
</svg>