<?xml version="1.0" encoding="UTF-8" standalone="no"?>
<svg width="381px" height="320px" viewBox="0 0 381 320" version="1.1" xmlns="http://www.w3.org/2000/svg" xmlns:xlink="http://www.w3.org/1999/xlink">
    <!-- Generator: sketchtool 41 (35326) - http://www.bohemiancoding.com/sketch -->
    <title>DE3F3E19-91DC-4CC3-ABEE-000E2C6E98AB</title>
    <desc>Created with sketchtool.</desc>
    <defs></defs>
    <g id="Page-1" stroke="none" stroke-width="1" fill="none" fill-rule="evenodd">
        <g id="HOME_full_page" transform="translate(-530.000000, -1038.000000)">
            <g id="Page-1" transform="translate(530.000000, 1038.000000)">
                <g id="Group-5" transform="translate(179.087558, 13.563607)" fill-opacity="0.6" fill="#000000">
                    <polygon id="Fill-1" points="175.137097 67.8497286 52.233871 0.326499311 52.233871 29.5068689 149.678571 83.0424118 149.678571 161.900251 175.137097 175.886201"></polygon>
                    <polygon id="Fill-3" points="123.781106 96.9328649 0.877880184 29.4096357 0.877880184 58.5900052 98.3225806 112.125548 98.3225806 190.983387 123.781106 204.969337"></polygon>
                </g>
                <polygon id="Fill-6" fill-opacity="0.6" fill="#000000" points="0 252.149924 122.903226 319.673153 122.903226 211.636681 0 144.113452"></polygon>
                <g id="Group-11" transform="translate(50.917051, 85.271756)" fill-opacity="0.6" fill="#000000">
                    <polygon id="Fill-7" points="123.342166 97.2814417 0.438940092 29.7582124 0.438940092 58.9385819 97.8836406 112.474125 97.8836406 191.331964 123.342166 205.317914"></polygon>
                    <polygon id="Fill-9" points="174.698157 68.1983053 51.7949309 0.675076025 51.7949309 29.8554456 149.239631 83.3909885 149.239631 162.248828 174.698157 176.234778"></polygon>
                </g>
                <polygon id="Fill-12" fill="#FFFFFF" points="257.219245 -0.000347261329 231.32178 13.8901059 354.225006 81.4133352 354.225006 82.0314604 380.122471 67.522882"></polygon>
                <polygon id="Fill-13" fill="#FFFFFF" points="205.862903 29.0829627 179.965438 42.9734159 302.868664 110.496645 302.868664 110.805708 328.486963 96.453397"></polygon>
                <path d="M128.610013,72.0568635 L154.507088,58.16662 L276.851982,125.382523 L251.512848,139.580302 L225.615207,154.08836 L225.615207,153.470235 L102.711982,85.9470055 L128.609447,72.0565523 Z" id="Combined-Shape" fill="#FFFFFF"></path>
                <polygon id="Fill-16" fill="#FFFFFF" points="77.2534562 101.139689 51.3559908 115.030142 174.259217 182.553371 174.259217 182.862434 199.877516 168.510123"></polygon>
                <polygon id="Fill-17" fill="#FFFFFF" points="0 144.112757 122.903226 211.635987 148.242359 197.439943 25.8974654 130.222304"></polygon>
                <polygon id="Fill-18" fill-opacity="0.1" fill="#000000" points="354.225181 82.0323285 354.225181 189.450676 380.122647 175.560222 380.122647 67.5220139"></polygon>
                <polygon id="Fill-19" fill-opacity="0.1" fill="#000000" points="328.766129 204.642838 328.766129 96.6063656 328.486963 96.4518343 302.868664 110.805881 302.868664 218.533291"></polygon>
                <polygon id="Fill-20" fill-opacity="0.1" fill="#000000" points="251.512673 247.616427 277.410138 233.725974 277.410138 125.689502 276.851806 125.382176 251.512673 139.579955"></polygon>
                <polygon id="Fill-21" fill-opacity="0.3" fill="#000000" points="251.512673 247.616427 251.512673 139.579955 225.615207 154.088534 225.615207 261.506881"></polygon>
                <polygon id="Fill-22" fill-opacity="0.3" fill="#000000" points="200.156682 276.699564 200.156682 168.663092 199.877516 168.50856 174.259217 182.862607 174.259217 290.590017"></polygon>
                <polygon id="Fill-23" fill-opacity="0.3" fill="#000000" points="122.903577 211.635987 122.903577 319.672459 148.801042 305.782006 148.801042 197.745533 148.242711 197.439943"></polygon>
            </g>
        </g>
    </g>
</svg>